<svg data-name="Raggruppa 191" xmlns="http://www.w3.org/2000/svg" width="205.116" height="17.04"><path data-name="Tracciato 62" d="M198.456.424h-6.911v16.475h3.079v-5.3h3.48c3.856 0 7.011-1.93 7.011-5.625v-.047c.001-3.314-2.579-5.503-6.659-5.503Zm3.53 5.493c0 1.718-1.452 2.942-3.781 2.942h-3.581V2.928h3.583c2.3 0 3.781 1.012 3.781 2.942Z" fill="currentColor"/><path data-name="Tracciato 63" d="M180.73 16.97c4.582 0 7.536-2.471 7.536-7.39V.236h-3.08v9.485c0 3.036-1.678 4.59-4.407 4.59-2.754 0-4.432-1.648-4.432-4.707V.237h-3.08v9.485c0 4.778 2.9 7.249 7.461 7.249" fill="currentColor"/><path data-name="Tracciato 64" d="M161.844 0c-5.383 0-9.189 3.884-9.189 8.52v.047c0 4.637 3.756 8.473 9.139 8.473s9.189-3.884 9.189-8.52v-.047c0-4.637-3.756-8.473-9.139-8.473Zm5.909 8.567a5.734 5.734 0 0 1-5.909 5.814 5.815 5.815 0 0 1-5.959-5.861v-.047a5.734 5.734 0 0 1 5.909-5.814 5.815 5.815 0 0 1 5.959 5.861Z" fill="currentColor"/><path data-name="Tracciato 65" d="M146.553 10.521c2.454-.659 4.181-2.283 4.181-4.99v-.047a4.821 4.821 0 0 0-1.452-3.554 7.337 7.337 0 0 0-5.058-1.647h-7.812v16.475h3.084v-5.743h3.856l4.307 5.743h3.631Zm-7.061-2.071V2.919h4.482c2.278 0 3.63.965 3.63 2.73v.047c0 1.671-1.4 2.753-3.605 2.753Z" fill="currentColor"/><path data-name="Tracciato 66" d="M125.68 17.04a11.59 11.59 0 0 0 7.311-2.565v-6.92h-7.461v2.519h4.482v3.083a7.471 7.471 0 0 1-4.231 1.248 5.668 5.668 0 0 1-5.959-5.884v-.047a5.727 5.727 0 0 1 5.684-5.814 7.112 7.112 0 0 1 4.907 1.765l1.953-2.189A9.831 9.831 0 0 0 125.631 0c-5.283 0-9.039 3.907-9.039 8.52v.047c0 4.8 3.606 8.473 9.089 8.473" fill="currentColor"/><path data-name="Tracciato 67" d="M97.587 16.993c3.681 0 6.26-1.836 6.26-4.919v-.047c0-2.73-1.928-3.977-5.634-4.825-3.355-.753-4.156-1.318-4.156-2.589v-.047c0-1.083 1.052-1.953 2.854-1.953a8.268 8.268 0 0 1 4.757 1.695l1.653-2.189a10.11 10.11 0 0 0-6.36-2.071c-3.48 0-5.984 1.953-5.984 4.778v.047c0 3.036 2.1 4.072 5.834 4.919 3.255.706 3.956 1.341 3.956 2.518v.047c0 1.248-1.2 2.071-3.1 2.071a8.344 8.344 0 0 1-5.533-2.142l-1.853 2.071a11.2 11.2 0 0 0 7.311 2.636" fill="currentColor"/><path data-name="Tracciato 68" d="M75.356 16.758h13.12v-2.589h-10.04V9.744h8.788V7.155h-8.788V2.871h9.915V.282H75.356Z" fill="currentColor"/><path data-name="Tracciato 69" d="M56.721 16.758h3.03V5.037l9.665 11.721h2.579V.283h-3.03v11.391L59.576.283h-2.855Z" fill="currentColor"/><path data-name="Rettangolo 4" fill="currentColor" d="M50.365.283h3.08v16.475h-3.08z"/><path data-name="Tracciato 70" d="M37.719 16.876h2.7L47.705.283H44.38l-5.258 12.662L33.839.283h-3.405Z" fill="currentColor"/><path data-name="Tracciato 71" d="M25.957.165h-2.854l-7.712 16.593h3.155l1.8-3.977h8.288l1.778 3.977h3.255Zm-4.482 10.05 3-6.59 3.03 6.59Z" fill="currentColor"/><path data-name="Tracciato 72" d="M6.535.283H0v16.475h6.535c5.508 0 9.314-3.6 9.314-8.238v-.047c0-4.636-3.806-8.19-9.314-8.19Zm6.085 8.284c0 3.225-2.4 5.555-6.085 5.555H3.08v-11.2h3.455c3.681 0 6.085 2.377 6.085 5.6Z" fill="currentColor"/></svg>